<mxfile host="app.diagrams.net" agent="Mozilla/5.0 (Windows NT 10.0; Win64; x64) AppleWebKit/537.36 (KHTML, like Gecko) Chrome/130.0.0.0 Safari/537.36" version="24.8.2">
  <diagram id="prtHgNgQTEPvFCAcTncT" name="Page-1">
    <mxGraphModel grid="1" page="1" gridSize="10" guides="1" tooltips="1" connect="1" arrows="1" fold="1" pageScale="1" pageWidth="827" pageHeight="1169" math="0" shadow="0">
      <root>
        <mxCell id="0" />
        <mxCell id="1" parent="0" />
        <mxCell id="v3UeqhlfsqRhzpMFVcfp-12" value="" style="rounded=0;whiteSpace=wrap;html=1;fillColor=#b0e3e6;strokeColor=#0e8088;" vertex="1" parent="1">
          <mxGeometry x="940" y="550" width="990" height="260" as="geometry" />
        </mxCell>
        <mxCell id="dNxyNK7c78bLwvsdeMH5-19" value="Pool" style="swimlane;html=1;childLayout=stackLayout;resizeParent=1;resizeParentMax=0;horizontal=0;startSize=20;horizontalStack=0;" vertex="1" parent="1">
          <mxGeometry x="120" y="120" width="640" height="670" as="geometry" />
        </mxCell>
        <mxCell id="dNxyNK7c78bLwvsdeMH5-20" value="ObtenciÃ³n de datos" style="swimlane;html=1;startSize=20;horizontal=0;" vertex="1" parent="dNxyNK7c78bLwvsdeMH5-19">
          <mxGeometry x="20" width="620" height="470" as="geometry">
            <mxRectangle x="20" width="700" height="30" as="alternateBounds" />
          </mxGeometry>
        </mxCell>
        <mxCell id="dNxyNK7c78bLwvsdeMH5-25" value="" style="edgeStyle=orthogonalEdgeStyle;rounded=0;orthogonalLoop=1;jettySize=auto;html=1;" edge="1" parent="dNxyNK7c78bLwvsdeMH5-20" source="dNxyNK7c78bLwvsdeMH5-23" target="dNxyNK7c78bLwvsdeMH5-24">
          <mxGeometry relative="1" as="geometry" />
        </mxCell>
        <mxCell id="dNxyNK7c78bLwvsdeMH5-23" value="" style="ellipse;whiteSpace=wrap;html=1;fillColor=#d5e8d4;strokeColor=#82b366;" vertex="1" parent="dNxyNK7c78bLwvsdeMH5-20">
          <mxGeometry x="40" y="40" width="40" height="40" as="geometry" />
        </mxCell>
        <mxCell id="qCQZ_PqONaoO6qpuSyLe-29" style="edgeStyle=orthogonalEdgeStyle;rounded=0;orthogonalLoop=1;jettySize=auto;html=1;entryX=0.5;entryY=0;entryDx=0;entryDy=0;" edge="1" parent="dNxyNK7c78bLwvsdeMH5-20" source="dNxyNK7c78bLwvsdeMH5-24" target="qCQZ_PqONaoO6qpuSyLe-3">
          <mxGeometry relative="1" as="geometry" />
        </mxCell>
        <mxCell id="dNxyNK7c78bLwvsdeMH5-24" value="Codigo listado Challenger" style="rounded=0;whiteSpace=wrap;html=1;fontFamily=Helvetica;fontSize=12;align=center;fillColor=#d5e8d4;strokeColor=#82b366;" vertex="1" parent="dNxyNK7c78bLwvsdeMH5-20">
          <mxGeometry x="120" y="30" width="80" height="60" as="geometry" />
        </mxCell>
        <mxCell id="qCQZ_PqONaoO6qpuSyLe-30" style="edgeStyle=orthogonalEdgeStyle;rounded=0;orthogonalLoop=1;jettySize=auto;html=1;entryX=0.5;entryY=0;entryDx=0;entryDy=0;" edge="1" parent="dNxyNK7c78bLwvsdeMH5-20" source="qCQZ_PqONaoO6qpuSyLe-1" target="qCQZ_PqONaoO6qpuSyLe-26">
          <mxGeometry relative="1" as="geometry" />
        </mxCell>
        <mxCell id="qCQZ_PqONaoO6qpuSyLe-1" value="Codigo listado GrandMaster" style="rounded=0;whiteSpace=wrap;html=1;fontFamily=Helvetica;fontSize=12;align=center;fillColor=#d5e8d4;strokeColor=#82b366;" vertex="1" parent="dNxyNK7c78bLwvsdeMH5-20">
          <mxGeometry x="260" y="30" width="80" height="60" as="geometry" />
        </mxCell>
        <mxCell id="qCQZ_PqONaoO6qpuSyLe-31" style="edgeStyle=orthogonalEdgeStyle;rounded=0;orthogonalLoop=1;jettySize=auto;html=1;entryX=0.5;entryY=0;entryDx=0;entryDy=0;" edge="1" parent="dNxyNK7c78bLwvsdeMH5-20" source="qCQZ_PqONaoO6qpuSyLe-2" target="qCQZ_PqONaoO6qpuSyLe-27">
          <mxGeometry relative="1" as="geometry" />
        </mxCell>
        <mxCell id="qCQZ_PqONaoO6qpuSyLe-2" value="Codigo listado Master" style="rounded=0;whiteSpace=wrap;html=1;fontFamily=Helvetica;fontSize=12;align=center;fillColor=#d5e8d4;strokeColor=#82b366;" vertex="1" parent="dNxyNK7c78bLwvsdeMH5-20">
          <mxGeometry x="400" y="30" width="80" height="60" as="geometry" />
        </mxCell>
        <mxCell id="qCQZ_PqONaoO6qpuSyLe-3" value="Guardar en json" style="rounded=0;whiteSpace=wrap;html=1;fontFamily=Helvetica;fontSize=12;align=center;fillColor=#d5e8d4;strokeColor=#82b366;" vertex="1" parent="dNxyNK7c78bLwvsdeMH5-20">
          <mxGeometry x="120" y="130" width="80" height="60" as="geometry" />
        </mxCell>
        <mxCell id="qCQZ_PqONaoO6qpuSyLe-36" style="edgeStyle=orthogonalEdgeStyle;rounded=0;orthogonalLoop=1;jettySize=auto;html=1;entryX=0.5;entryY=0;entryDx=0;entryDy=0;" edge="1" parent="dNxyNK7c78bLwvsdeMH5-20" source="qCQZ_PqONaoO6qpuSyLe-26" target="qCQZ_PqONaoO6qpuSyLe-34">
          <mxGeometry relative="1" as="geometry" />
        </mxCell>
        <mxCell id="qCQZ_PqONaoO6qpuSyLe-26" value="Guardar en json" style="rounded=0;whiteSpace=wrap;html=1;fontFamily=Helvetica;fontSize=12;align=center;fillColor=#d5e8d4;strokeColor=#82b366;" vertex="1" parent="dNxyNK7c78bLwvsdeMH5-20">
          <mxGeometry x="260" y="130" width="80" height="60" as="geometry" />
        </mxCell>
        <mxCell id="qCQZ_PqONaoO6qpuSyLe-27" value="Guardar en json" style="rounded=0;whiteSpace=wrap;html=1;fontFamily=Helvetica;fontSize=12;align=center;fillColor=#d5e8d4;strokeColor=#82b366;" vertex="1" parent="dNxyNK7c78bLwvsdeMH5-20">
          <mxGeometry x="400" y="130" width="80" height="60" as="geometry" />
        </mxCell>
        <mxCell id="qCQZ_PqONaoO6qpuSyLe-32" value="" style="endArrow=none;dashed=1;html=1;dashPattern=1 3;strokeWidth=2;rounded=0;exitX=1;exitY=0.5;exitDx=0;exitDy=0;entryX=0;entryY=0.5;entryDx=0;entryDy=0;" edge="1" parent="dNxyNK7c78bLwvsdeMH5-20" source="dNxyNK7c78bLwvsdeMH5-24" target="qCQZ_PqONaoO6qpuSyLe-1">
          <mxGeometry width="50" height="50" relative="1" as="geometry">
            <mxPoint x="250" y="-50" as="sourcePoint" />
            <mxPoint x="230" y="-60" as="targetPoint" />
          </mxGeometry>
        </mxCell>
        <mxCell id="qCQZ_PqONaoO6qpuSyLe-33" value="" style="endArrow=none;dashed=1;html=1;dashPattern=1 3;strokeWidth=2;rounded=0;exitX=1;exitY=0.5;exitDx=0;exitDy=0;entryX=0;entryY=0.5;entryDx=0;entryDy=0;" edge="1" parent="dNxyNK7c78bLwvsdeMH5-20" source="qCQZ_PqONaoO6qpuSyLe-1" target="qCQZ_PqONaoO6qpuSyLe-2">
          <mxGeometry width="50" height="50" relative="1" as="geometry">
            <mxPoint x="210" y="70" as="sourcePoint" />
            <mxPoint x="270" y="70" as="targetPoint" />
          </mxGeometry>
        </mxCell>
        <mxCell id="qCQZ_PqONaoO6qpuSyLe-43" style="edgeStyle=orthogonalEdgeStyle;rounded=0;orthogonalLoop=1;jettySize=auto;html=1;entryX=0.5;entryY=0;entryDx=0;entryDy=0;" edge="1" parent="dNxyNK7c78bLwvsdeMH5-20" source="qCQZ_PqONaoO6qpuSyLe-34" target="qCQZ_PqONaoO6qpuSyLe-38">
          <mxGeometry relative="1" as="geometry" />
        </mxCell>
        <mxCell id="qCQZ_PqONaoO6qpuSyLe-34" value="Unificar en un unico listado de jugadores" style="rounded=0;whiteSpace=wrap;html=1;fontFamily=Helvetica;fontSize=12;align=center;fillColor=#d5e8d4;strokeColor=#82b366;" vertex="1" parent="dNxyNK7c78bLwvsdeMH5-20">
          <mxGeometry x="120" y="240" width="360" height="60" as="geometry" />
        </mxCell>
        <mxCell id="qCQZ_PqONaoO6qpuSyLe-35" style="edgeStyle=orthogonalEdgeStyle;rounded=0;orthogonalLoop=1;jettySize=auto;html=1;entryX=0.111;entryY=0.026;entryDx=0;entryDy=0;entryPerimeter=0;" edge="1" parent="dNxyNK7c78bLwvsdeMH5-20" source="qCQZ_PqONaoO6qpuSyLe-3" target="qCQZ_PqONaoO6qpuSyLe-34">
          <mxGeometry relative="1" as="geometry" />
        </mxCell>
        <mxCell id="qCQZ_PqONaoO6qpuSyLe-37" style="edgeStyle=orthogonalEdgeStyle;rounded=0;orthogonalLoop=1;jettySize=auto;html=1;entryX=0.889;entryY=0.04;entryDx=0;entryDy=0;entryPerimeter=0;" edge="1" parent="dNxyNK7c78bLwvsdeMH5-20" source="qCQZ_PqONaoO6qpuSyLe-27" target="qCQZ_PqONaoO6qpuSyLe-34">
          <mxGeometry relative="1" as="geometry" />
        </mxCell>
        <mxCell id="qCQZ_PqONaoO6qpuSyLe-44" style="edgeStyle=orthogonalEdgeStyle;rounded=0;orthogonalLoop=1;jettySize=auto;html=1;entryX=0;entryY=0.5;entryDx=0;entryDy=0;" edge="1" parent="dNxyNK7c78bLwvsdeMH5-20" source="qCQZ_PqONaoO6qpuSyLe-38" target="qCQZ_PqONaoO6qpuSyLe-42">
          <mxGeometry relative="1" as="geometry" />
        </mxCell>
        <mxCell id="qCQZ_PqONaoO6qpuSyLe-38" value="Codigo ids 20 partidas* jugador" style="rounded=0;whiteSpace=wrap;html=1;fontFamily=Helvetica;fontSize=12;align=center;fillColor=#d5e8d4;strokeColor=#82b366;" vertex="1" parent="dNxyNK7c78bLwvsdeMH5-20">
          <mxGeometry x="120" y="360" width="80" height="60" as="geometry" />
        </mxCell>
        <mxCell id="qCQZ_PqONaoO6qpuSyLe-41" value="Guardar en Json" style="rounded=0;whiteSpace=wrap;html=1;fontFamily=Helvetica;fontSize=12;align=center;fillColor=#d5e8d4;strokeColor=#82b366;" vertex="1" parent="dNxyNK7c78bLwvsdeMH5-20">
          <mxGeometry x="400" y="360" width="80" height="60" as="geometry" />
        </mxCell>
        <mxCell id="qCQZ_PqONaoO6qpuSyLe-45" style="edgeStyle=orthogonalEdgeStyle;rounded=0;orthogonalLoop=1;jettySize=auto;html=1;entryX=0;entryY=0.5;entryDx=0;entryDy=0;" edge="1" parent="dNxyNK7c78bLwvsdeMH5-20" source="qCQZ_PqONaoO6qpuSyLe-42" target="qCQZ_PqONaoO6qpuSyLe-41">
          <mxGeometry relative="1" as="geometry" />
        </mxCell>
        <mxCell id="qCQZ_PqONaoO6qpuSyLe-42" value="Detalles de cada partida" style="rounded=0;whiteSpace=wrap;html=1;fontFamily=Helvetica;fontSize=12;align=center;fillColor=#d5e8d4;strokeColor=#82b366;" vertex="1" parent="dNxyNK7c78bLwvsdeMH5-20">
          <mxGeometry x="260" y="360" width="80" height="60" as="geometry" />
        </mxCell>
        <mxCell id="qCQZ_PqONaoO6qpuSyLe-56" value="1" style="ellipse;whiteSpace=wrap;html=1;aspect=fixed;fillColor=#1ba1e2;fontColor=#ffffff;strokeColor=#006EAF;" vertex="1" parent="dNxyNK7c78bLwvsdeMH5-20">
          <mxGeometry x="110" y="350" width="17" height="17" as="geometry" />
        </mxCell>
        <mxCell id="qCQZ_PqONaoO6qpuSyLe-62" value="2" style="ellipse;whiteSpace=wrap;html=1;aspect=fixed;fillColor=#1ba1e2;fontColor=#ffffff;strokeColor=#006EAF;" vertex="1" parent="dNxyNK7c78bLwvsdeMH5-20">
          <mxGeometry x="250" y="350" width="17" height="17" as="geometry" />
        </mxCell>
        <mxCell id="v3UeqhlfsqRhzpMFVcfp-14" value="" style="shape=curlyBracket;whiteSpace=wrap;html=1;rounded=1;labelPosition=left;verticalLabelPosition=middle;align=right;verticalAlign=middle;rotation=90;" vertex="1" parent="dNxyNK7c78bLwvsdeMH5-20">
          <mxGeometry x="362.5" y="232.5" width="20" height="215" as="geometry" />
        </mxCell>
        <mxCell id="v3UeqhlfsqRhzpMFVcfp-13" value="3" style="ellipse;whiteSpace=wrap;html=1;aspect=fixed;fillColor=#1ba1e2;fontColor=#ffffff;strokeColor=#006EAF;" vertex="1" parent="dNxyNK7c78bLwvsdeMH5-20">
          <mxGeometry x="364" y="320" width="17" height="17" as="geometry" />
        </mxCell>
        <mxCell id="qCQZ_PqONaoO6qpuSyLe-52" value="Aislado de datos" style="swimlane;horizontal=0;whiteSpace=wrap;html=1;startSize=20;" vertex="1" parent="dNxyNK7c78bLwvsdeMH5-19">
          <mxGeometry x="20" y="470" width="620" height="200" as="geometry" />
        </mxCell>
        <mxCell id="qCQZ_PqONaoO6qpuSyLe-46" value="Convertir a CSV" style="rounded=0;whiteSpace=wrap;html=1;fontFamily=Helvetica;fontSize=12;fontColor=#ffffff;align=center;fillColor=#0050ef;strokeColor=#001DBC;" vertex="1" parent="qCQZ_PqONaoO6qpuSyLe-52">
          <mxGeometry x="400" y="70" width="80" height="60" as="geometry" />
        </mxCell>
        <mxCell id="qCQZ_PqONaoO6qpuSyLe-47" style="edgeStyle=orthogonalEdgeStyle;rounded=0;orthogonalLoop=1;jettySize=auto;html=1;entryX=0.5;entryY=0;entryDx=0;entryDy=0;" edge="1" parent="dNxyNK7c78bLwvsdeMH5-19" source="qCQZ_PqONaoO6qpuSyLe-41" target="qCQZ_PqONaoO6qpuSyLe-46">
          <mxGeometry relative="1" as="geometry" />
        </mxCell>
        <mxCell id="qCQZ_PqONaoO6qpuSyLe-55" value="5.500 jugadores.&lt;div&gt;1 consulta por jugador.&lt;/div&gt;&lt;div&gt;&lt;div style=&quot;background-color: rgb(247, 247, 247); font-family: monospace, Consolas, &amp;quot;Courier New&amp;quot;, monospace; font-size: 14px; line-height: 19px; white-space: pre;&quot;&gt;&lt;div&gt;&lt;span style=&quot;color: #0000ff;&quot;&gt;- &lt;/span&gt;20 requests cada 1 segundo&lt;/div&gt;&lt;div&gt;&lt;span style=&quot;color: #0000ff;&quot;&gt;- &lt;/span&gt;100 requests cada 2 minutos&lt;/div&gt;&lt;/div&gt;&lt;/div&gt;&lt;div&gt;Armar codigo que consulte en bucle, luego de hacer 20 request, que espere hasta completar 1 segundo. luego de repetir eso 5 veces, esperar hasta completar 2 minutos.&lt;/div&gt;&lt;div&gt;5.000 consulas * 2&#39; / 100 = 100 minutos = &lt;b&gt;1:40 hs.&lt;/b&gt;&lt;/div&gt;" style="rounded=0;whiteSpace=wrap;html=1;" vertex="1" parent="1">
          <mxGeometry x="940" y="125" width="330" height="160" as="geometry" />
        </mxCell>
        <mxCell id="qCQZ_PqONaoO6qpuSyLe-54" value="Servidor =&amp;nbsp;LATAM1&lt;div&gt;Partidas =&amp;nbsp;RANKED_FLEX_SR&lt;/div&gt;" style="rounded=0;whiteSpace=wrap;html=1;fillColor=#647687;fontColor=#ffffff;strokeColor=#314354;" vertex="1" parent="1">
          <mxGeometry x="660" y="140" width="200" height="60" as="geometry" />
        </mxCell>
        <mxCell id="qCQZ_PqONaoO6qpuSyLe-57" value="1" style="ellipse;whiteSpace=wrap;html=1;aspect=fixed;fillColor=#1ba1e2;fontColor=#ffffff;strokeColor=#006EAF;" vertex="1" parent="1">
          <mxGeometry x="930" y="120" width="17" height="17" as="geometry" />
        </mxCell>
        <mxCell id="qCQZ_PqONaoO6qpuSyLe-53" value="Problema, cantidad de consultas cada segundo" style="whiteSpace=wrap;html=1;shape=mxgraph.basic.document;fillColor=#fff2cc;gradientColor=#ffd966;strokeColor=#d6b656;" vertex="1" parent="1">
          <mxGeometry x="1220" y="110" width="90" height="70" as="geometry" />
        </mxCell>
        <mxCell id="qCQZ_PqONaoO6qpuSyLe-59" value="Ids de 20.000 partidas&lt;div&gt;1 consulta por partida.&lt;/div&gt;&lt;div&gt;&lt;div style=&quot;background-color: rgb(247, 247, 247); font-family: monospace, Consolas, &amp;quot;Courier New&amp;quot;, monospace; font-size: 14px; line-height: 19px; white-space: pre;&quot;&gt;&lt;div&gt;&lt;span style=&quot;color: #0000ff;&quot;&gt;- &lt;/span&gt;20 requests cada 1 segundo&lt;/div&gt;&lt;div&gt;&lt;span style=&quot;color: #0000ff;&quot;&gt;- &lt;/span&gt;100 requests cada 2 minutos&lt;/div&gt;&lt;/div&gt;&lt;/div&gt;&lt;div&gt;Armar codigo que consulte en bucle, luego de hacer 20 request, que espere hasta completar 1 segundo. luego de repetir eso 5 veces, esperar hasta completar 2 minutos.&lt;/div&gt;&lt;div&gt;20.00 consulas * 2&#39; / 100 = 400 minutos = &lt;b&gt;6:40 hs&lt;/b&gt;.&lt;/div&gt;" style="rounded=0;whiteSpace=wrap;html=1;" vertex="1" parent="1">
          <mxGeometry x="940" y="345" width="330" height="160" as="geometry" />
        </mxCell>
        <mxCell id="qCQZ_PqONaoO6qpuSyLe-60" value="2" style="ellipse;whiteSpace=wrap;html=1;aspect=fixed;fillColor=#1ba1e2;fontColor=#ffffff;strokeColor=#006EAF;" vertex="1" parent="1">
          <mxGeometry x="930" y="340" width="17" height="17" as="geometry" />
        </mxCell>
        <mxCell id="qCQZ_PqONaoO6qpuSyLe-61" value="Problema, cantidad de consultas cada segundo" style="whiteSpace=wrap;html=1;shape=mxgraph.basic.document;fillColor=#fff2cc;gradientColor=#ffd966;strokeColor=#d6b656;" vertex="1" parent="1">
          <mxGeometry x="1220" y="330" width="90" height="70" as="geometry" />
        </mxCell>
        <mxCell id="qCQZ_PqONaoO6qpuSyLe-63" value="1ro arma bucle, luego resolvemos la espera * request" style="whiteSpace=wrap;html=1;shape=mxgraph.basic.document;fillColor=#fff2cc;gradientColor=#ffd966;strokeColor=#d6b656;" vertex="1" parent="1">
          <mxGeometry x="860" y="260" width="130" height="70" as="geometry" />
        </mxCell>
        <mxCell id="v3UeqhlfsqRhzpMFVcfp-1" value="partidos de jugador.json" style="shape=note;whiteSpace=wrap;html=1;backgroundOutline=1;darkOpacity=0.05;" vertex="1" parent="1">
          <mxGeometry x="1030" y="660" width="80" height="100" as="geometry" />
        </mxCell>
        <mxCell id="v3UeqhlfsqRhzpMFVcfp-2" value="" style="endArrow=classic;html=1;rounded=0;exitX=0;exitY=0;exitDx=80;exitDy=65;exitPerimeter=0;" edge="1" parent="1" source="v3UeqhlfsqRhzpMFVcfp-1" target="v3UeqhlfsqRhzpMFVcfp-3">
          <mxGeometry width="50" height="50" relative="1" as="geometry">
            <mxPoint x="1370" y="900" as="sourcePoint" />
            <mxPoint x="1140" y="725" as="targetPoint" />
          </mxGeometry>
        </mxCell>
        <mxCell id="v3UeqhlfsqRhzpMFVcfp-7" style="edgeStyle=orthogonalEdgeStyle;rounded=0;orthogonalLoop=1;jettySize=auto;html=1;entryX=0;entryY=0.5;entryDx=0;entryDy=0;" edge="1" parent="1" source="v3UeqhlfsqRhzpMFVcfp-3" target="v3UeqhlfsqRhzpMFVcfp-6">
          <mxGeometry relative="1" as="geometry" />
        </mxCell>
        <mxCell id="v3UeqhlfsqRhzpMFVcfp-3" value="Leer desde script" style="rounded=0;whiteSpace=wrap;html=1;" vertex="1" parent="1">
          <mxGeometry x="1190" y="695" width="120" height="60" as="geometry" />
        </mxCell>
        <mxCell id="v3UeqhlfsqRhzpMFVcfp-4" value="{&lt;div&gt;id:xxxx&lt;/div&gt;&lt;div&gt;matchs: [xx, xx, xx]&lt;br&gt;&lt;div&gt;}&lt;/div&gt;&lt;/div&gt;" style="shape=callout;whiteSpace=wrap;html=1;perimeter=calloutPerimeter;" vertex="1" parent="1">
          <mxGeometry x="1010" y="580" width="120" height="80" as="geometry" />
        </mxCell>
        <mxCell id="v3UeqhlfsqRhzpMFVcfp-11" style="edgeStyle=orthogonalEdgeStyle;rounded=0;orthogonalLoop=1;jettySize=auto;html=1;entryX=0;entryY=0.5;entryDx=0;entryDy=0;" edge="1" parent="1" source="v3UeqhlfsqRhzpMFVcfp-5" target="v3UeqhlfsqRhzpMFVcfp-10">
          <mxGeometry relative="1" as="geometry" />
        </mxCell>
        <mxCell id="v3UeqhlfsqRhzpMFVcfp-5" value="por cada id recuperar datos de partido" style="rounded=0;whiteSpace=wrap;html=1;" vertex="1" parent="1">
          <mxGeometry x="1548.5" y="695" width="120" height="60" as="geometry" />
        </mxCell>
        <mxCell id="v3UeqhlfsqRhzpMFVcfp-9" style="edgeStyle=orthogonalEdgeStyle;rounded=0;orthogonalLoop=1;jettySize=auto;html=1;entryX=0;entryY=0.5;entryDx=0;entryDy=0;" edge="1" parent="1" source="v3UeqhlfsqRhzpMFVcfp-6" target="v3UeqhlfsqRhzpMFVcfp-5">
          <mxGeometry relative="1" as="geometry" />
        </mxCell>
        <mxCell id="v3UeqhlfsqRhzpMFVcfp-6" value="Armar arreglo solo con partidos" style="rounded=0;whiteSpace=wrap;html=1;" vertex="1" parent="1">
          <mxGeometry x="1370" y="695" width="120" height="60" as="geometry" />
        </mxCell>
        <mxCell id="v3UeqhlfsqRhzpMFVcfp-8" value="[xx, xx, xx, xx]" style="shape=callout;whiteSpace=wrap;html=1;perimeter=calloutPerimeter;" vertex="1" parent="1">
          <mxGeometry x="1370" y="615" width="120" height="80" as="geometry" />
        </mxCell>
        <mxCell id="v3UeqhlfsqRhzpMFVcfp-10" value="guardar en formato JSON" style="rounded=0;whiteSpace=wrap;html=1;" vertex="1" parent="1">
          <mxGeometry x="1750" y="695" width="120" height="60" as="geometry" />
        </mxCell>
        <mxCell id="v3UeqhlfsqRhzpMFVcfp-15" value="3" style="ellipse;whiteSpace=wrap;html=1;aspect=fixed;fillColor=#1ba1e2;fontColor=#ffffff;strokeColor=#006EAF;" vertex="1" parent="1">
          <mxGeometry x="930" y="540" width="17" height="17" as="geometry" />
        </mxCell>
      </root>
    </mxGraphModel>
  </diagram>
</mxfile>
